solid solidWall
 facet normal 0 -1 0
  outer loop
   vertex 0 0 1.62
   vertex 0 0 0
   vertex 0.5 0 0
  endloop
 endfacet
 facet normal 0 -1 0
  outer loop
   vertex 0.5 0 0
   vertex 0.5 0 1.8
   vertex 0 0 1.62
  endloop
 endfacet
 facet normal 0 -1 0
  outer loop
   vertex 0.5 0 8.27
   vertex 0.5 0 10
   vertex 0 0 10
  endloop
 endfacet
 facet normal 0 -1 0
  outer loop
   vertex 0 0 3.79
   vertex 0 0 1.62
   vertex 0.5 0 1.8
  endloop
 endfacet
 facet normal 0 -1 0
  outer loop
   vertex 0 0 8.21
   vertex 0 0 6.12
   vertex 0.5 0 6.08
  endloop
 endfacet
 facet normal 0 -1 0
  outer loop
   vertex 0 0 10
   vertex 0 0 8.21
   vertex 0.5 0 8.27
  endloop
 endfacet
 facet normal 0 -1 0
  outer loop
   vertex 0.5 0 1.8
   vertex 0.5 0 3.79
   vertex 0 0 3.79
  endloop
 endfacet
 facet normal 0 -1 0
  outer loop
   vertex 0.5 0 6.08
   vertex 0.5 0 8.27
   vertex 0 0 8.21
  endloop
 endfacet
 facet normal -0 -1 0
  outer loop
   vertex 0.5 0 6.08
   vertex 0 0 6.12
   vertex 0.162288 0 5.0036
  endloop
 endfacet
 facet normal 0 -1 0
  outer loop
   vertex 0 0 3.79
   vertex 0.5 0 3.79
   vertex 0.25 0 4.96766
  endloop
 endfacet
 facet normal 0 -1 0
  outer loop
   vertex 0.5 0 3.79
   vertex 0.5 0 6.08
   vertex 0.25 0 4.96766
  endloop
 endfacet
 facet normal 0 -1 0
  outer loop
   vertex 0 0 6.12
   vertex 0 0 3.79
   vertex 0.162288 0 5.0036
  endloop
 endfacet
 facet normal 0 -1 0
  outer loop
   vertex 0 0 3.79
   vertex 0.25 0 4.96766
   vertex 0.162288 0 5.0036
  endloop
 endfacet
 facet normal 0 -1 0
  outer loop
   vertex 0.5 0 6.08
   vertex 0.162288 0 5.0036
   vertex 0.25 0 4.96766
  endloop
 endfacet
 facet normal 0 -1 0
  outer loop
   vertex -15 -0 2.27
   vertex -15 0 0
   vertex -13.435 0 0
  endloop
 endfacet
 facet normal 0 -1 0
  outer loop
   vertex -15 -0 5.08
   vertex -15 -0 2.27
   vertex -12.4793 -0 3.675
  endloop
 endfacet
 facet normal 0 -1 0
  outer loop
   vertex -15 -0 10
   vertex -15 -0 7.9
   vertex -13.435 -0 10
  endloop
 endfacet
 facet normal -0 -1 0
  outer loop
   vertex -10 0 0
   vertex -10 -0 1.74
   vertex -11.72 0 0
  endloop
 endfacet
 facet normal 0 -1 0
  outer loop
   vertex -10 -0 1.74
   vertex -10 -0 3.73
   vertex -11.7127 -0 2.735
  endloop
 endfacet
 facet normal 0 -1 0
  outer loop
   vertex -10 -0 6.22
   vertex -10 -0 8.32
   vertex -11.982 -0 7.27
  endloop
 endfacet
 facet normal 0 -1 0
  outer loop
   vertex -10 -0 8.32
   vertex -10 -0 10
   vertex -11.72 -0 10
  endloop
 endfacet
 facet normal 0 -1 0
  outer loop
   vertex -11.72 0 0
   vertex -10 -0 1.74
   vertex -11.7127 -0 2.735
  endloop
 endfacet
 facet normal -0 -1 0
  outer loop
   vertex -11.72 -0 10
   vertex -13.435 -0 10
   vertex -13.285 -0 7.9
  endloop
 endfacet
 facet normal 0 -1 -0
  outer loop
   vertex -13.435 -0 10
   vertex -15 -0 7.9
   vertex -13.285 -0 7.9
  endloop
 endfacet
 facet normal 0 -1 0
  outer loop
   vertex -15 -0 2.27
   vertex -13.435 0 0
   vertex -12.4793 -0 3.675
  endloop
 endfacet
 facet normal 0 -1 0
  outer loop
   vertex -15 -0 7.9
   vertex -15 -0 5.08
   vertex -12.7486 -0 6.49
  endloop
 endfacet
 facet normal -0 -1 0
  outer loop
   vertex -10 -0 6.22
   vertex -11.982 -0 7.27
   vertex -12.4793 -0 3.675
  endloop
 endfacet
 facet normal -0 -1 0
  outer loop
   vertex -10 -0 3.73
   vertex -10 -0 6.22
   vertex -12.4793 -0 3.675
  endloop
 endfacet
 facet normal -0 -1 0
  outer loop
   vertex -10 -0 8.32
   vertex -11.72 -0 10
   vertex -11.982 -0 7.27
  endloop
 endfacet
 facet normal 0 -1 -0
  outer loop
   vertex -13.435 0 0
   vertex -11.72 0 0
   vertex -11.7127 -0 2.735
  endloop
 endfacet
 facet normal 0 -1 0
  outer loop
   vertex -11.982 -0 7.27
   vertex -11.72 -0 10
   vertex -13.285 -0 7.9
  endloop
 endfacet
 facet normal 0 -1 0
  outer loop
   vertex -15 -0 7.9
   vertex -12.7486 -0 6.49
   vertex -13.285 -0 7.9
  endloop
 endfacet
 facet normal 0 -1 0
  outer loop
   vertex -11.7127 -0 2.735
   vertex -10 -0 3.73
   vertex -12.4793 -0 3.675
  endloop
 endfacet
 facet normal 0 -1 0
  outer loop
   vertex -13.285 -0 7.9
   vertex -12.7486 -0 6.49
   vertex -11.982 -0 7.27
  endloop
 endfacet
 facet normal 0 -1 -0
  outer loop
   vertex -12.4793 -0 3.675
   vertex -13.435 0 0
   vertex -11.7127 -0 2.735
  endloop
 endfacet
 facet normal 0 -1 0
  outer loop
   vertex -15 -0 5.08
   vertex -12.4793 -0 3.675
   vertex -12.7486 -0 6.49
  endloop
 endfacet
 facet normal 0 -1 0
  outer loop
   vertex -11.982 -0 7.27
   vertex -12.7486 -0 6.49
   vertex -12.4793 -0 3.675
  endloop
 endfacet
 facet normal 0 -1 0
  outer loop
   vertex 10.5 0 1.52
   vertex 10.5 0 0
   vertex 11.9445 0 0
  endloop
 endfacet
 facet normal 0 -1 0
  outer loop
   vertex 10.5 0 3.18
   vertex 10.5 0 1.52
   vertex 12.001 0 2.35
  endloop
 endfacet
 facet normal 0 -1 0
  outer loop
   vertex 10.5 0 5.12
   vertex 10.5 0 3.18
   vertex 12.001 0 4.29
  endloop
 endfacet
 facet normal 0 -1 0
  outer loop
   vertex 10.5 0 3.18
   vertex 12.001 0 2.35
   vertex 12.001 0 4.29
  endloop
 endfacet
 facet normal 0 -1 0
  outer loop
   vertex 10.5 0 6.9
   vertex 10.5 0 5.12
   vertex 12.001 0 6.07
  endloop
 endfacet
 facet normal 0 -1 0
  outer loop
   vertex 10.5 0 5.12
   vertex 12.001 0 4.29
   vertex 12.001 0 6.07
  endloop
 endfacet
 facet normal 0 -1 0
  outer loop
   vertex 10.5 0 8.51
   vertex 10.5 0 6.9
   vertex 12.001 0 7.68
  endloop
 endfacet
 facet normal 0 -1 0
  outer loop
   vertex 10.5 0 6.9
   vertex 12.001 0 6.07
   vertex 12.001 0 7.68
  endloop
 endfacet
 facet normal 0 -1 0
  outer loop
   vertex 10.5 0 10
   vertex 10.5 0 8.51
   vertex 11.9445 0 10
  endloop
 endfacet
 facet normal 0 -1 0
  outer loop
   vertex 15 0 0
   vertex 15 0 1.52
   vertex 13.488 0 0
  endloop
 endfacet
 facet normal 0 -1 0
  outer loop
   vertex 15 0 1.52
   vertex 15 0 3.18
   vertex 13.499 0 2.35
  endloop
 endfacet
 facet normal 0 -1 0
  outer loop
   vertex 15 0 3.18
   vertex 15 0 5.12
   vertex 12.001 0 4.29
  endloop
 endfacet
 facet normal 0 -1 0
  outer loop
   vertex 15 0 5.12
   vertex 15 0 6.9
   vertex 12.001 0 6.07
  endloop
 endfacet
 facet normal 0 -1 0
  outer loop
   vertex 15 0 8.51
   vertex 15 0 10
   vertex 13.488 0 10
  endloop
 endfacet
 facet normal 0 -1 -0
  outer loop
   vertex 11.9445 0 10
   vertex 10.5 0 8.51
   vertex 12.001 0 7.68
  endloop
 endfacet
 facet normal 0 -1 0
  outer loop
   vertex 11.9445 0 0
   vertex 13.488 0 0
   vertex 12.7163 0 1.36634
  endloop
 endfacet
 facet normal -0 -1 -0
  outer loop
   vertex 13.488 0 10
   vertex 11.9445 0 10
   vertex 13.5005 0 8.095
  endloop
 endfacet
 facet normal -0 -1 0
  outer loop
   vertex 15 0 8.51
   vertex 13.488 0 10
   vertex 13.5005 0 8.095
  endloop
 endfacet
 facet normal 0 -1 0
  outer loop
   vertex 11.9445 0 10
   vertex 12.001 0 7.68
   vertex 13.5005 0 8.095
  endloop
 endfacet
 facet normal 0 -1 0
  outer loop
   vertex 12.001 0 4.29
   vertex 15 0 5.12
   vertex 12.001 0 6.07
  endloop
 endfacet
 facet normal 0 -1 0
  outer loop
   vertex 15 0 6.9
   vertex 15 0 8.51
   vertex 13.5005 0 8.095
  endloop
 endfacet
 facet normal 0 -1 0
  outer loop
   vertex 13.488 0 0
   vertex 15 0 1.52
   vertex 13.499 0 2.35
  endloop
 endfacet
 facet normal 0 -1 0
  outer loop
   vertex 10.5 0 1.52
   vertex 11.9445 0 0
   vertex 12.001 0 2.35
  endloop
 endfacet
 facet normal -0 -1 0
  outer loop
   vertex 15 0 6.9
   vertex 13.5005 0 8.095
   vertex 12.001 0 6.07
  endloop
 endfacet
 facet normal 0 -1 0
  outer loop
   vertex 13.499 0 2.35
   vertex 15 0 3.18
   vertex 12.001 0 4.29
  endloop
 endfacet
 facet normal 0 -1 0
  outer loop
   vertex 12.001 0 4.29
   vertex 12.001 0 2.35
   vertex 13.499 0 2.35
  endloop
 endfacet
 facet normal 0 -1 0
  outer loop
   vertex 12.001 0 6.07
   vertex 13.5005 0 8.095
   vertex 12.001 0 7.68
  endloop
 endfacet
 facet normal 0 -1 0
  outer loop
   vertex 11.9445 0 0
   vertex 12.7163 0 1.36634
   vertex 12.001 0 2.35
  endloop
 endfacet
 facet normal 0 -1 0
  outer loop
   vertex 12.001 0 2.35
   vertex 12.7163 0 1.36634
   vertex 13.499 0 2.35
  endloop
 endfacet
 facet normal 0 -1 0
  outer loop
   vertex 12.7163 0 1.36634
   vertex 13.488 0 0
   vertex 13.499 0 2.35
  endloop
 endfacet
endsolid solidWall
